<?xml version="1.0" encoding="UTF-8"?>
<!DOCTYPE svg PUBLIC "-//W3C//DTD SVG 1.1//EN" "http://www.w3.org/Graphics/SVG/1.1/DTD/svg11.dtd">
<!-- Creator: CorelDRAW 2017 -->
<svg xmlns="http://www.w3.org/2000/svg" xml:space="preserve" width="128.588mm" height="20.3729mm" version="1.1" style="shape-rendering:geometricPrecision; text-rendering:geometricPrecision; image-rendering:optimizeQuality; fill-rule:evenodd; clip-rule:evenodd"
viewBox="0 0 13518 2142"
 xmlns:xlink="http://www.w3.org/1999/xlink">
 <defs>
  <style type="text/css">
   <![CDATA[
    .fil1 {fill:#0D4172}
    .fil0 {fill:#FCA433}
   ]]>
  </style>
 </defs>
 <g id="Layer_x0020_1">
  <metadata id="CorelCorpID_0Corel-Layer"/>
  <g id="_1838151446960">
   <polygon class="fil0" points="1113,389 1113,417 1057,417 1057,445 1029,445 1029,473 974,473 974,501 946,501 946,528 918,528 918,556 890,556 890,584 862,584 862,834 918,834 918,807 946,807 946,779 974,779 974,751 1001,751 1001,723 1029,723 1029,695 1085,695 1113,640 1140,640 1140,612 1196,612 1196,584 1224,584 1224,556 1224,528 1252,528 1252,501 1307,501 1307,473 1363,473 1363,1419 1307,1419 1307,1446 1252,1446 1252,1474 1196,1474 1196,1502 1168,1502 1168,1530 1140,1530 1140,1585 1113,1585 1113,1613 1029,1613 1029,1641 1001,1641 1001,1669 974,1669 974,1697 918,1697 918,1725 890,1725 890,1919 974,1919 974,1891 1057,1891 1057,1864 1140,1864 1140,1836 1224,1836 1224,1808 1363,1808 1363,1780 1474,1780 1474,1752 2003,1752 2003,362 1975,362 1975,334 1725,334 1725,1585 1558,1585 1558,1613 1363,1613 1363,1558 1474,1558 1474,1530 1530,1530 1530,1502 1585,1502 1585,1474 1613,1474 1613,223 1474,223 1474,250 1363,250 1363,278 1307,278 1307,306 1252,306 1252,334 1168,334 1168,362 1140,362 1140,389 "/>
   <polygon class="fil1" points="1085,417 1113,417 1113,0 1057,0 1057,28 946,28 946,56 862,56 862,83 807,83 807,111 695,111 695,139 556,139 556,167 389,167 389,195 28,195 28,223 0,223 0,1558 278,1558 278,362 556,362 556,334 668,334 668,362 612,362 612,389 584,389 584,417 528,417 528,445 473,445 473,473 445,473 445,501 389,501 389,1725 473,1725 473,1697 584,1697 584,1669 640,1669 640,1641 751,1641 751,1613 807,1613 807,1585 862,1585 862,1335 834,1335 834,1363 779,1363 779,1391 751,1391 751,1419 695,1419 695,1446 640,1446 640,556 668,556 668,528 723,528 723,501 751,501 751,473 779,473 779,445 834,445 834,417 862,417 862,389 890,389 890,362 918,362 918,334 946,334 946,306 974,306 974,278 1029,278 1029,223 1085,223 "/>
   <path class="fil1" d="M4923 918l-139 0 0 -223 139 0 0 28 28 0 0 167 -28 0 0 28zm-862 -362l28 0 0 -111 28 0 0 28 28 0 0 167 -83 0 0 -83zm862 -28l-111 0 0 -167 111 0 0 28 28 0 0 111 -28 0 0 28zm-1029 -195l83 0 0 83 -28 0 0 111 -28 0 0 56 -28 0 0 195 -28 0 0 56 -28 0 0 83 -83 0 0 167 334 0 0 -139 -28 0 0 -28 -56 0 0 -139 195 0 0 139 -83 0 0 167 890 0 0 -28 56 0 0 -28 28 0 0 -28 28 0 0 -28 28 0 0 -56 28 0 0 -195 -28 0 0 -28 -28 0 0 -56 -56 0 0 -56 28 0 0 -28 28 0 0 -28 28 0 0 -195 -28 0 0 -56 -28 0 0 -28 -28 0 0 -28 -56 0 0 -28 -501 0 0 139 28 0 0 28 56 0 0 556 -195 0 0 -83 -28 0 0 -111 -28 0 0 -111 -28 0 0 -139 -28 0 0 -56 -28 0 0 -83 83 0 0 -139 -445 0 0 139z"/>
   <path class="fil1" d="M12378 584l28 0 0 -83 28 0 0 -56 28 0 0 56 28 0 0 139 -111 0 0 -56zm-167 -223l83 0 0 83 -28 0 0 111 -28 0 0 167 -28 0 0 111 -28 0 0 83 -111 0 0 167 334 0 0 -167 -83 0 0 -56 28 0 0 -83 195 0 0 139 -83 0 0 167 1029 0 0 -417 -139 0 0 250 -195 0 0 -584 83 0 0 -139 -389 0 0 139 111 0 0 584 -223 0 0 -83 -28 0 0 -56 -28 0 0 -83 -28 0 0 -195 -28 0 0 -83 -28 0 0 -83 83 0 0 -139 -473 0 0 167z"/>
   <polygon class="fil1" points="11293,362 11404,362 11404,918 11293,918 11293,1085 11627,1085 11627,918 11543,918 11543,528 11571,528 11571,556 11599,556 11599,612 11627,612 11627,668 11655,668 11655,751 11682,751 11682,807 11710,807 11710,890 11766,890 11766,1001 11794,1001 11794,1029 11821,1029 11821,1085 11988,1085 11988,334 12072,334 12072,195 11766,195 11766,362 11849,362 11849,640 11821,640 11821,584 11794,584 11794,556 11766,556 11766,501 11738,501 11738,417 11710,417 11710,362 11682,362 11682,334 11655,334 11655,250 11627,250 11627,195 11293,195 "/>
   <path class="fil1" d="M6731 862l-28 0 0 28 -56 0 0 28 -139 0 0 -556 167 0 0 28 28 0 0 28 28 0 0 83 28 0 0 278 -28 0 0 83zm-528 -528l111 0 0 584 -111 0 0 167 501 0 0 -28 83 0 0 -28 28 0 0 -28 56 0 0 -56 28 0 0 -28 28 0 0 -56 28 0 0 -83 28 0 0 -278 -28 0 0 -83 -28 0 0 -56 -28 0 0 -28 -28 0 0 -28 -28 0 0 -28 -28 0 0 -28 -28 0 0 -28 -83 0 0 -28 -501 0 0 139z"/>
   <path class="fil1" d="M10653 501l28 0 0 -83 28 0 0 -28 28 0 0 -28 195 0 0 28 28 0 0 28 28 0 0 56 28 0 0 306 -28 0 0 56 -28 0 0 28 -28 0 0 28 -28 0 0 28 -139 0 0 -28 -56 0 0 -56 -28 0 0 -56 -28 0 0 -278zm28 -278l-56 0 0 28 -28 0 0 28 -28 0 0 28 -28 0 0 28 -28 0 0 28 -28 0 0 56 -28 0 0 83 -28 0 0 278 28 0 0 83 28 0 0 56 28 0 0 28 28 0 0 28 28 0 0 28 28 0 0 28 28 0 0 28 83 0 0 28 223 0 0 -28 83 0 0 -28 56 0 0 -28 28 0 0 -28 28 0 0 -28 28 0 0 -56 28 0 0 -28 28 0 0 -83 28 0 0 -278 -28 0 0 -111 -28 0 0 -28 -28 0 0 -28 -28 0 0 -56 -56 0 0 -28 -28 0 0 -28 -56 0 0 -28 -306 0 0 28z"/>
   <path class="fil1" d="M8845 528l28 0 0 -83 28 0 0 56 28 0 0 139 -83 0 0 -111zm-195 -195l28 0 0 28 56 0 0 83 -28 0 0 139 -28 0 0 83 -28 0 0 167 -28 0 0 83 -111 0 0 167 334 0 0 -139 -83 0 0 -83 28 0 0 -83 195 0 0 139 -83 0 0 167 362 0 0 -167 -83 0 0 -28 -28 0 0 -111 -28 0 0 -195 -28 0 0 -83 -28 0 0 -28 -28 0 0 -139 83 0 0 -139 -473 0 0 139z"/>
   <polygon class="fil1" points="6759,1530 6870,1530 6870,2003 6759,2003 6759,2114 7121,2114 7121,2003 7065,2003 7065,1780 7093,1780 7093,1808 7121,1808 7121,1836 7149,1836 7149,1891 7176,1891 7176,1919 7204,1919 7204,1947 7232,1947 7232,1975 7260,1975 7260,2003 7176,2003 7176,2142 7594,2142 7594,2003 7482,2003 7482,1975 7455,1975 7455,1919 7427,1919 7427,1891 7399,1891 7399,1864 7371,1864 7371,1836 7343,1836 7343,1808 7315,1808 7315,1752 7288,1752 7288,1697 7315,1697 7315,1669 7343,1669 7343,1641 7371,1641 7371,1613 7399,1613 7399,1585 7427,1585 7427,1558 7455,1558 7455,1530 7566,1530 7566,1419 7204,1419 7204,1530 7260,1530 7260,1558 7232,1558 7232,1585 7204,1585 7204,1613 7176,1613 7176,1641 7149,1641 7149,1669 7121,1669 7121,1697 7093,1697 7093,1725 7065,1725 7065,1530 7149,1530 7149,1419 6759,1419 "/>
   <polygon class="fil1" points="8428,1530 8539,1530 8539,2003 8428,2003 8428,2114 8762,2114 8762,2003 8678,2003 8678,1669 8706,1669 8706,1697 8734,1697 8734,1752 8762,1752 8762,1808 8790,1808 8790,1864 8817,1864 8817,1891 8845,1891 8845,1947 8873,1947 8873,2003 8901,2003 8901,2031 8929,2031 8929,2086 8957,2086 8957,2142 9151,2142 9151,1530 9235,1530 9235,1419 8929,1419 8929,1530 8984,1530 8984,1752 8957,1752 8957,1725 8929,1725 8929,1697 8901,1697 8901,1641 8873,1641 8873,1585 8845,1585 8845,1558 8817,1558 8817,1530 8790,1530 8790,1446 8734,1446 8734,1419 8428,1419 "/>
   <polygon class="fil1" points="5507,334 5591,334 5591,918 5507,918 5507,1085 6147,1085 6147,779 6008,779 6008,946 5786,946 5786,695 5952,695 5952,556 5786,556 5786,334 6008,334 6008,473 6147,473 6147,195 5507,195 "/>
   <path class="fil1" d="M13018 1947l-28 0 0 28 -56 0 0 28 -139 0 0 -473 139 0 0 28 56 0 0 28 28 0 0 56 28 0 0 278 -28 0 0 28zm-528 -417l111 0 0 473 -111 0 0 111 584 0 0 -28 56 0 0 -28 28 0 0 -28 28 0 0 -28 28 0 0 -56 28 0 0 -56 28 0 0 -250 -28 0 0 -28 -28 0 0 -83 -28 0 0 -28 -28 0 0 -28 -56 0 0 -28 -28 0 0 -28 -584 0 0 111z"/>
   <polygon class="fil1" points="8011,223 7955,223 7955,250 7927,250 7927,278 7872,278 7872,334 7844,334 7844,417 7816,417 7816,445 7788,445 7788,834 7816,834 7816,862 7844,862 7844,918 7872,918 7872,974 7900,974 7900,1001 7927,1001 7927,1029 7983,1029 7983,1057 8039,1057 8039,1085 8317,1085 8317,1057 8345,1057 8345,1029 8400,1029 8400,1001 8428,1001 8428,974 8456,974 8456,918 8484,918 8484,862 8511,862 8511,779 8484,779 8484,751 8456,751 8456,723 8428,723 8428,695 8372,695 8372,779 8345,779 8345,834 8317,834 8317,862 8289,862 8289,890 8261,890 8261,918 8094,918 8094,890 8066,890 8066,862 8039,862 8039,779 7983,779 7983,501 8011,501 8011,473 8039,473 8039,417 8066,417 8066,389 8094,389 8094,362 8122,362 8122,334 8261,334 8261,362 8289,362 8289,389 8317,389 8317,417 8345,417 8345,501 8484,501 8484,195 8372,195 8372,223 8289,223 8289,195 8011,195 "/>
   <polygon class="fil1" points="10041,1419 9958,1419 9958,1446 9902,1446 9902,1474 9874,1474 9874,1502 9847,1502 9847,1530 9819,1530 9819,1585 9791,1585 9791,1669 9763,1669 9763,1891 9791,1891 9791,1947 9819,1947 9819,2003 9847,2003 9847,2031 9874,2031 9874,2058 9902,2058 9902,2086 9958,2086 9958,2114 10041,2114 10041,2142 10264,2142 10264,2114 10347,2114 10347,2086 10403,2086 10403,2058 10459,2058 10459,2031 10486,2031 10486,1975 10514,1975 10514,1947 10542,1947 10542,1891 10570,1891 10570,1752 10208,1752 10208,1891 10319,1891 10319,1947 10292,1947 10292,1975 10264,1975 10264,2003 10125,2003 10125,1975 10041,1975 10041,1947 10014,1947 10014,1891 9986,1891 9986,1613 10014,1613 10014,1585 10041,1585 10041,1558 10097,1558 10097,1530 10264,1530 10264,1558 10292,1558 10292,1585 10319,1585 10319,1613 10347,1613 10347,1669 10486,1669 10486,1419 10375,1419 10375,1446 10292,1446 10292,1419 10264,1419 10264,1391 10041,1391 "/>
   <polygon class="fil1" points="7037,334 7121,334 7121,918 7149,918 7149,974 7176,974 7176,1029 7232,1029 7232,1057 7260,1057 7260,1085 7482,1085 7482,1057 7538,1057 7538,1029 7594,1029 7594,946 7621,946 7621,362 7733,362 7733,195 7427,195 7427,334 7510,334 7510,890 7482,890 7482,918 7343,918 7343,890 7315,890 7315,334 7399,334 7399,195 7037,195 "/>
   <polygon class="fil1" points="9262,556 9402,556 9402,362 9485,362 9485,918 9374,918 9374,1085 9791,1085 9791,918 9680,918 9680,362 9763,362 9763,556 9902,556 9902,195 9262,195 "/>
   <path class="fil1" d="M5535 1947l-28 0 0 28 -56 0 0 28 -111 0 0 -28 -83 0 0 -28 -28 0 0 -28 -28 0 0 -306 28 0 0 -28 28 0 0 -28 56 0 0 -28 139 0 0 28 56 0 0 28 28 0 0 28 28 0 0 278 -28 0 0 56zm-250 -528l-83 0 0 28 -56 0 0 28 -56 0 0 28 -28 0 0 28 -28 0 0 56 -28 0 0 83 -28 0 0 223 28 0 0 56 28 0 0 28 28 0 0 56 56 0 0 28 28 0 0 28 56 0 0 28 389 0 0 -28 28 0 0 -28 56 0 0 -28 28 0 0 -56 28 0 0 -56 28 0 0 -28 28 0 0 -223 -28 0 0 -83 -28 0 0 -28 -28 0 0 -56 -28 0 0 -28 -56 0 0 -28 -56 0 0 -28 -28 0 0 -28 -250 0 0 28z"/>
   <path class="fil1" d="M6092 1669l28 0 0 -56 28 0 0 -28 28 0 0 -28 56 0 0 -28 111 0 0 28 56 0 0 28 28 0 0 28 28 0 0 56 28 0 0 223 -28 0 0 28 -28 0 0 28 -28 0 0 28 -56 0 0 28 -139 0 0 -28 -28 0 0 -28 -28 0 0 -28 -28 0 0 -83 -28 0 0 -167zm111 -250l-83 0 0 28 -83 0 0 28 -28 0 0 28 -28 0 0 28 -28 0 0 28 -28 0 0 56 -28 0 0 306 28 0 0 56 28 0 0 28 28 0 0 28 28 0 0 28 28 0 0 28 56 0 0 28 389 0 0 -28 28 0 0 -28 56 0 0 -28 28 0 0 -28 28 0 0 -28 28 0 0 -56 28 0 0 -56 28 0 0 -195 -28 0 0 -28 -28 0 0 -83 -28 0 0 -28 -28 0 0 -28 -28 0 0 -28 -28 0 0 -28 -56 0 0 -28 -139 0 0 -28 -139 0 0 28z"/>
   <path class="fil1" d="M4617 2003l-111 0 0 -195 111 0 0 28 28 0 0 28 28 0 0 111 -56 0 0 28zm0 -306l-111 0 0 -167 111 0 0 28 28 0 0 111 -28 0 0 28zm-389 -167l83 0 0 473 -83 0 0 111 528 0 0 -28 56 0 0 -28 28 0 0 -28 28 0 0 -223 -56 0 0 -28 -28 0 0 -28 -28 0 0 -28 28 0 0 -28 28 0 0 -28 28 0 0 -167 -28 0 0 -28 -28 0 0 -28 -28 0 0 -28 -528 0 0 111z"/>
   <polygon class="fil1" points="3171,334 3282,334 3282,946 3171,946 3171,1085 3588,1085 3588,918 3477,918 3477,695 3616,695 3616,556 3477,556 3477,362 3672,362 3672,473 3811,473 3811,195 3171,195 "/>
   <polygon class="fil1" points="11794,1697 11905,1697 11905,1530 11988,1530 11988,2003 11905,2003 11905,2114 12322,2114 12322,2003 12211,2003 12211,1530 12294,1530 12294,1697 12433,1697 12433,1419 11794,1419 "/>
   <polygon class="fil1" points="11126,1530 11210,1530 11210,2003 11098,2003 11098,2142 11766,2142 11766,1780 11599,1780 11599,2003 11404,2003 11404,1530 11488,1530 11488,1419 11126,1419 "/>
   <polygon class="fil1" points="9958,334 10069,334 10069,918 9958,918 9958,1085 10375,1085 10375,918 10264,918 10264,334 10347,334 10347,195 9958,195 "/>
   <polygon class="fil1" points="7705,1446 7677,1446 7677,1474 7649,1474 7649,1502 7621,1502 7621,1669 7649,1669 7649,1725 7677,1725 7677,1752 7705,1752 7705,1780 7760,1780 7760,1808 7816,1808 7816,1836 7872,1836 7872,1864 7900,1864 7900,1891 7927,1891 7927,2003 7816,2003 7816,1975 7788,1975 7788,1947 7760,1947 7760,1891 7621,1891 7621,2114 7816,2114 7816,2142 7983,2142 7983,2114 8011,2114 8011,2086 8066,2086 8066,2058 8094,2058 8094,1780 8039,1780 8039,1752 8011,1752 8011,1725 7955,1725 7955,1697 7900,1697 7900,1669 7844,1669 7844,1641 7788,1641 7788,1530 7900,1530 7900,1558 7955,1558 7955,1613 8066,1613 8066,1419 7705,1419 "/>
   <polygon class="fil1" points="9290,1530 9374,1530 9374,2003 9290,2003 9290,2114 9680,2114 9680,2003 9568,2003 9568,1530 9680,1530 9680,1419 9290,1419 "/>
   <polygon class="fil1" points="10625,2114 10792,2114 10792,1947 10625,1947 "/>
   <polygon class="fil1" points="13351,2114 13518,2114 13518,1947 13351,1947 "/>
  </g>
 </g>
</svg>
